/* XPM */
static char *result[] = {
/* columns rows colors chars-per-pixel */
"32 32 164 2 ",
"   c #FADCA9",
".  c #FADCAA",
"X  c #FADAA5",
"o  c #F5B256",
"O  c #F3A439",
"+  c #F3A53B",
"@  c #F7C376",
"#  c #FADDAB",
"$  c #FADDAC",
"%  c #F7C479",
"&  c #F3A53A",
"*  c #F5B55B",
"=  c #FADBA6",
"-  c #FADAA4",
";  c #F7C174",
":  c #F6BA65",
">  c #F4AA46",
",  c #F6B963",
"<  c #F7C67D",
"1  c #F9D294",
"2  c #F8CB88",
"3  c #F6BB67",
"4  c #F6C071",
"5  c #F7C67C",
"6  c #F7C57B",
"7  c #F8CC89",
"8  c #FADBA8",
"9  c #FADDAA",
"0  c #FAD9A2",
"q  c #F4AE4E",
"w  c #F3A338",
"e  c #F3A43A",
"r  c #F7C780",
"t  c #FADEAD",
"y  c #FADEAC",
"u  c #F6BF70",
"i  c #F3A134",
"p  c #F6BC6A",
"a  c #F9D7A0",
"s  c #F7C275",
"d  c #F6C070",
"f  c #F6BE6C",
"g  c #F4AA44",
"h  c #F3A63D",
"j  c #F6BB66",
"k  c #F7C274",
"l  c #F9D295",
"z  c #F8CB87",
"x  c #F6BF6F",
"c  c #F7C172",
"v  c #F7C173",
"b  c #F8CD8B",
"n  c #F9D499",
"m  c #F4A943",
"M  c #F3A438",
"N  c #F3A63E",
"B  c #F8CF8F",
"V  c #FADFAE",
"C  c #F9D498",
"Z  c #F7C478",
"A  c #F3A740",
"S  c #F3A840",
"D  c #F6BD6B",
"F  c #F6BE6E",
"G  c #F9D59A",
"H  c #F7C378",
"J  c #F8C983",
"K  c #F9D59B",
"L  c #F3A337",
"P  c #FADFB0",
"I  c #F3A336",
"U  c #FADCA8",
"Y  c #F8C982",
"T  c #F6BC68",
"R  c #F4A944",
"E  c #F5B861",
"W  c #F9D8A0",
"Q  c #FADBA7",
"!  c #F8CC88",
"~  c #F7C880",
"^  c #F7C881",
"/  c #F6BA64",
"(  c #F6C072",
")  c #F5B255",
"_  c #F4AF4F",
"`  c #F7C77F",
"'  c #F5B153",
"]  c #FAD9A3",
"[  c #F5B65C",
"{  c #F4B050",
"}  c #F4AD4C",
"|  c #F8CA85",
" . c #F6B964",
".. c #F4AA45",
"X. c #F5B55C",
"o. c #F5B55A",
"O. c #F8CC8A",
"+. c #F6BE6D",
"@. c #F3A943",
"#. c #F9D193",
"$. c #F7C67E",
"%. c #F3A63C",
"&. c #F3A53C",
"*. c #F8CF90",
"=. c #F5B860",
"-. c #F5B760",
";. c #F9D59C",
":. c #F5B65D",
">. c #F8C984",
",. c #F4AC48",
"<. c #F7C77E",
"1. c #F6BC69",
"2. c #F8CD8A",
"3. c #F5B357",
"4. c #F4AD4A",
"5. c #F5B459",
"6. c #F5B458",
"7. c #F3A73E",
"8. c #FADAA6",
"9. c #F9D397",
"0. c #F4AF50",
"q. c #F9D192",
"w. c #F5B254",
"e. c #F3A73F",
"r. c #F7C57A",
"t. c #F9D49A",
"y. c #F4AB46",
"u. c #F4AD4B",
"i. c #F9D79F",
"p. c #F9D79E",
"a. c #F9D69E",
"s. c #F8CE8E",
"d. c #F4AB48",
"f. c #F4AE4C",
"g. c #F4AC4A",
"h. c #F4AB47",
"j. c #F3A841",
"k. c #FAD9A4",
"l. c #F4AC49",
"z. c #F8D091",
"x. c #FAD8A2",
"c. c #F9D194",
"v. c #F8CA86",
"b. c #F3A842",
"n. c #F9D296",
"m. c #F8CE8D",
"M. c #F4B152",
"N. c #F6BD6A",
"B. c #F3A942",
"V. c #F9D396",
"C. c #F5B75F",
"Z. c #F5B75E",
"A. c #F5B45A",
"S. c #F4AE4D",
"D. c #FAD8A1",
"F. c #F7C57C",
"G. c #F8CA84",
"H. c #F8D090",
"J. c #F3A235",
"K. c #F9D398",
"L. c #F5B962",
"P. c #F3A236",
"I. c #F7C377",
"U. c white",
/* pixels */
"                        . X o O + + + O @ #       $ % O & O * = ",
"                      - ; : > & + + , < 1 .   . 2 3 4 5 5 6 7 8 ",
"                9 9 # 0 q w O e e O r t .   . y u i p $ # # 9   ",
"            . a s u d f g h j s k k l .     z x c v b           ",
"  . # # # # y n m M w w O N B y # # .   9 $ 3 i v V $ # # # 9   ",
". C % Z Z Z % x A S : f D F G .       . B H 4 D c % Z Z Z H z 8 ",
"t J & e e e M M M > K # $ $ # # # # # y F L < P 4 I w w O M * U ",
"Y T + + & R E , , D W Q ! ~ ^ ^ ^ ^ ^ ^ * O / Y ( , , / ) e _ ` ",
"O e + + e ' X # # # # ] q M O O + + & O O O O w c # . t J + + + ",
"[ { + + e } | 7 7 7 7 |  .* * * ..& _ X.* * * o.J # K O.+.+ + + ",
"  ^ e O O e + + + + + @.#.U Q X [ O $.  Q Q U   . t 6 %.&.O O O ",
"# *.=.=.=.=.-.-.-.-.-.: ;..   8 :.O ` #     #.J >.| / e ,.=.=.=.",
"    U U U U U U U U U U     9   [ L <.#   . 1.e + & e L E 8 U U ",
"                          8 #.2.T 3.2.9   . T O 4.5.6.3.s       ",
"                        9 = 6.7.z     9 9 # T I 4 8 8.8.Q       ",
"                      Q 9.B 0.+ H 1 #.q.q.#.f _ <.9             ",
"                . 9 # ] w.A %.+ e.S S S S A r.- 8.              ",
"              = t.n n q.} e + + y.u.u.u.u.4.J #                 ",
"        . . # t.q ......%.& & &.r W i.i.i.i.X                   ",
"      8.p.a.i.s.@.e & + g y.y.d.b # . . . .                     ",
"    # B f.g.4.h.%.+ & j.7 K G G X .                             ",
"0 0 k.z m j.j.A + &.j.l.z.- ] ] 0 0 0 0 0 0 0 x.8.      Q 0 0 0 ",
"{ { _ , q.c.l v.b.g 7 *.[ _ { { { { { { { { { _ $.#   # 7 { 0.{ ",
"h h &.X.8 . U n.m y.n W { %.h h h h h h + e e M 4 Q X Q r N h h ",
"m.m.m.l . 9.* M.h N ' * J s.m.m.m.m.m.s.=.e + + l.3.3.o N.m.m.m.",
"# 9       *.e.O &.%.& B.V.$ # # # # # $ x & + + & O e O , 9 # # ",
"9 B C.Z.C.3.&.h.` v.| 2 ]               n.| A.e + e * | q.      ",
"$ Y e O O O O S.D.$ # #                 9 y 1.O + O D $ 9       ",
"3 3.& q F.< < G.X                     . | : k $.< < H.          ",
"O O w A.U # # #                     . $ f J.F.t # # 9         9 ",
"e _ k >.8                           | F c s c..           . K.u ",
"O L.# 9                              .P.I.t .             # ! &."
};
