/* XPM */
static char *result[] = {
/* columns rows colors chars-per-pixel */
"40 40 53 1 ",
"  c #351800",
". c #3B1C01",
"X c #442202",
"o c #4C2502",
"O c #4D2A03",
"+ c #502702",
"@ c #532B04",
"# c #582F05",
"$ c #5C3305",
"% c #5F3805",
"& c #4F391A",
"* c #563C16",
"= c #603606",
"- c #653B07",
"; c #683D07",
": c #673F08",
"> c #6A3F08",
", c #6B4107",
"< c #6D4208",
"1 c #724609",
"2 c #764A0A",
"3 c #7B4E0B",
"4 c #7D510C",
"5 c #7E5312",
"6 c #82560D",
"7 c #86590E",
"8 c #885B0E",
"9 c #815612",
"0 c #865B14",
"q c #8A5E13",
"w c #875D1A",
"e c #8D6116",
"r c #8E631C",
"t c #90661D",
"y c #8D6421",
"u c #906620",
"i c #946C25",
"p c #956D2A",
"a c #97702C",
"s c #98712C",
"d c #9A7433",
"f c #9F7A3A",
"g c #A07C3E",
"h c #A27F41",
"j c #A4803D",
"k c #A58244",
"l c #A88649",
"z c #AA894D",
"x c #AD8D51",
"c c #AF9055",
"v c #B09055",
"b c #B29359",
"n c None",
/* pixels */
"nnnnnnnnnnnnnnnnnnnnnnnnnnnnnnnnnnnnnnnn",
"nnnnnnnnnnnnnnnnnnnnnnnnnnnnnnnnnnnnnnnn",
"nnnnnnnnnnnnnnnnnnnnnnnnnnnnnnnnnn,nnnnn",
"nnnnnnnnnnnnnnnnnnnnnnnnnnnnnnnnnn3>nnnn",
"nnnnnnnnnnnnnnnnnnnnnnnnnnnnnnnnnn33nnnn",
"nnnnnnnnnnnnnnnnnnnnnnnnnnnnnnnnnn331nnn",
"nnnnnnnnnnnnnnnnnnnnnnnnnnnnnnnnnn633nnn",
"nnnnnnnnnnnnnnnnnnnnnnnnnnn8nnnnnn33nnnn",
"nnnnnnnnnnnnnnnnnn-nnnnnnnn7nnnnn333nnnn",
"nnnnnnnnnnnnnnnnnnn1nnnnnn77nnnn333nnnnn",
"nnnnnnnnnnnnnnnnnnn1,nnnne62nnn1336nnnnn",
"nnnnnnnnnnnnnnnnnnnn-waipt3-nn%-13nnnnnn",
"nnnnnnnnnnnnnnnnnnnn5kbls041<$@$>nnnnnnn",
"nnnnnnnnnnnnnnnnnnn6uzxde7766,@#nnnnnnnn",
"nnnnnnnn;1nnnnnnnn>6eaiq777643$@nnnnnnnn",
"nnnnnnnnn3nnnnnn,$@28777776442>nnnnnnnnn",
"nnnnnnnnnn2,nn449,X$48086644&&,nnnnnnnnn",
"nnnnnnnnnnnn,4sjs4@.:6866644**;nnnnnnnnn",
"nnnnnnnnnnnnedcly1@ .:4663323<-nnnnnnnnn",
"nnnnnnnnnnn8dcjt3#oo..%263332>nnnnnnnnnn",
"nnnnnnnnn27edsq2%$$$$X @-111,$@nnnnnnnnn",
"nnnnnnn%:477e4,%,13941$Xo@$$$@#-13nnnnnn",
"nn2333,-47774%%<4wdfy63:@++@nnnnn33nnnnn",
"nnnnn3n26772$#17ikzgt761=+nnnnnnnn36nnnn",
"nnnnnnn1901O@<5azclp063,=nnnnnnnnnnn3nnn",
"nnnnnnn-2,O@<7akxki642,-$nnnnnnnnnnnnnnn",
"nnnnnnn$O.@,7afkfy631;=@@$nnnnnnnnnnnnnn",
"nnnnnnnn X%2uffa043,;-nn=1nnnnnnnnnnnnnn",
"nnnnnnnnn+$2ypw431,:nnnnn33nnnnnnnnnnnnn",
"nnnnnnnnn+#-<,,>>%#nnnnnnn3nnnnnnnnnnnnn",
"nnnnnnnnnnn##$$nno@nnnnnnn6nnnnnnnnnnnnn",
"nnnnnnnnnnnnnnnnn#-nnnnnnnn3nnnnnnnnnnnn",
"nnnnnnnnnnnnnnnnn11nnnnnnnn6nnnnnnnnnnnn",
"nnnnnnnnnnnnnnnnn3nnnnnnnnn36nnnnnnnnnnn",
"nnnnnnnnnnnnnnnn33nnnnnnnnnnnnnnnnnnnnnn",
"nnnnnnnnnnnnnnn33nnnnnnnnnnnnnnnnnnnnnnn",
"nnnnnnnnnnnnnn-2nnnnnnnnnnnnnnnnnnnnnnnn",
"nnnnnnnnnnnnnnnnnnnnnnnnnnnnnnnnnnnnnnnn",
"nnnnnnnnnnnnnnnnnnnnnnnnnnnnnnnnnnnnnnnn",
"nnnnnnnnnnnnnnnnnnnnnnnnnnnnnnnnnnnnnnnn"
};
