/* XPM */
static char *result[] = {
/* columns rows colors chars-per-pixel */
"32 32 83 1 ",
"  c black",
". c #321F00",
"X c #322000",
"o c #332000",
"O c #372100",
"+ c #372300",
"@ c #3C2500",
"# c #3D2500",
"$ c #3D2600",
"% c #3D2700",
"& c #3E2700",
"* c #3E2800",
"= c #3E2E10",
"- c #333537",
"; c #3E3A31",
": c #383A3C",
"> c #773C00",
", c #684100",
"< c #6B490E",
"1 c #646363",
"2 c #814400",
"3 c #864900",
"4 c #874A00",
"5 c #975E00",
"6 c #9A5900",
"7 c #9B5F0E",
"8 c #985B10",
"9 c #A05900",
"0 c #986100",
"q c #A96200",
"w c #AE6200",
"e c #B06300",
"r c #BF7700",
"t c #9C6B2E",
"y c #C26C00",
"u c #C46D00",
"i c #C56F00",
"p c #C77400",
"a c #C17800",
"s c #C17900",
"d c #C27900",
"f c #C27A00",
"g c #C77B00",
"h c #C37C00",
"j c #C47C00",
"k c #C47D00",
"l c #C87C00",
"z c #D27D00",
"x c #BD8030",
"c c #BE8232",
"v c #E38C00",
"b c #EB9200",
"n c #F69800",
"m c #FFA610",
"M c #D2962E",
"N c #C48F32",
"B c #D1933E",
"V c #E29B30",
"C c #E6A232",
"Z c #FFB832",
"A c #A88965",
"S c #D29540",
"D c #FFBF42",
"F c #FFBF43",
"G c #DCB074",
"H c #FFC040",
"J c #FFC041",
"K c #999CA0",
"L c #BAB2AA",
"P c #C5B599",
"I c #E0C097",
"U c #E8C99B",
"Y c #F4D092",
"T c #FAD497",
"R c #F1E0C9",
"E c #F2E1CB",
"W c #FFEEC8",
"Q c #FFEFC9",
"! c #FFF0CB",
"~ c #FFF1CC",
"^ c #F4E9DA",
"/ c #FBFBFC",
"( c None",
/* pixels */
"((((((((((((((((((((((((((((((((",
"((((((((((((((((((((((((((((((((",
"((((((((((((((((((((((((((((((((",
"((((((((((((((((((((((((((((((((",
"((((((((((((((((((((((((((((((((",
"((((((((((((((((((((((((((((((((",
"((((((((((((((((((((((((((((((((",
"((((((((((((((((((((((((((((((((",
"((((((((((((        ((((((((((((",
"((((((((((((:;=&&*&+((((((((((((",
"(((((((((( -KPNffjk0X ((((((((((",
"((((((((((-1LUCvvbng,o((((((((((",
"(((((((( :KLAt766qpzl0+ ((((((((",
"(((((((( ;PUt>2438xVmh% ((((((((",
"(((((((( =NC729ewcITZs$ ((((((((",
"(((((((( &fv64eiuSE~Fr@ ((((((((",
"(((((((( &fv63wuyBR!Dr@ ((((((((",
"(((((((( *jbq8cSBG^QJa@ ((((((((",
"(((((((( &knpxIER^/WHd# ((((((((",
"(((((((( +0gzVT~!QWYM5O ((((((((",
"((((((((((X,lmZFDJHM<.((((((((((",
"(((((((((( o0hsrrad5. ((((((((((",
"((((((((((((+%$@@@#O((((((((((((",
"((((((((((((        ((((((((((((",
"((((((((((((((((((((((((((((((((",
"((((((((((((((((((((((((((((((((",
"((((((((((((((((((((((((((((((((",
"((((((((((((((((((((((((((((((((",
"((((((((((((((((((((((((((((((((",
"((((((((((((((((((((((((((((((((",
"((((((((((((((((((((((((((((((((",
"(((((((((((((((((((((((((((((((("
};
