/* XPM */
static char *result[] = {
/* columns rows colors chars-per-pixel */
"32 32 157 2 ",
"   c #E77D6F",
".  c #FF797A",
"X  c #F67E77",
"o  c #328E32",
"O  c #369336",
"+  c #3A973A",
"@  c #3C9A3B",
"#  c #469D35",
"$  c #489F36",
"%  c #4CA33D",
"&  c #55A83A",
"*  c #76A93D",
"=  c #68B234",
"-  c #71BC3F",
";  c #7BBD31",
":  c #3F9D41",
">  c #409F42",
",  c #639D4F",
"<  c #45A245",
"1  c #4AA64A",
"2  c #4CA94D",
"3  c #4AA545",
"4  c #5BAC43",
"5  c #54A44D",
"6  c #57AF4A",
"7  c #5DA94E",
"8  c #57B04F",
"9  c #5AB24D",
"0  c #4FAC50",
"q  c #51A552",
"w  c #52AE52",
"e  c #5AAC54",
"r  c #54B155",
"t  c #5BB353",
"y  c #64B647",
"u  c #6EBA41",
"i  c #69B44F",
"p  c #7BBB44",
"a  c #77BB45",
"s  c #62A856",
"d  c #7FA35E",
"f  c #76A85D",
"g  c #63B456",
"h  c #6AB653",
"j  c #6EB954",
"k  c #6CBA59",
"l  c #70BB51",
"z  c #7EBE54",
"x  c #79BF5B",
"c  c #75BD5A",
"v  c #7DC342",
"b  c #AB9F2F",
"n  c #A6983D",
"m  c #8DAE35",
"M  c #87B535",
"N  c #98B33B",
"B  c #B7AC2F",
"V  c #BBB125",
"C  c #BFB336",
"Z  c #C4BE2E",
"A  c #C8BF2D",
"S  c #C5BB32",
"D  c #FFBF2F",
"F  c #FFA93A",
"G  c #FFB437",
"H  c #8DC11C",
"J  c #A1CF1F",
"K  c #ACD217",
"L  c #BFDB10",
"P  c #B1D413",
"I  c #83C12B",
"U  c #9BCC2B",
"Y  c #8BC735",
"T  c #83C438",
"R  c #A7D72C",
"E  c #B3DC26",
"W  c #B6CF30",
"Q  c #CCC51A",
"!  c #C8DF1F",
"~  c #E2D31B",
"^  c #F5DA18",
"/  c #DCED0C",
"(  c #E3EF06",
")  c #E9E60D",
"_  c #EDEB0B",
"`  c #E3F007",
"'  c #ECF506",
"]  c #FFFF00",
"[  c #F9F70C",
"{  c #F4F607",
"}  c #E9E513",
"|  c #EAE712",
" . c #D0C823",
".. c #DBD520",
"X. c #C4CA39",
"o. c #FFCD20",
"O. c #FFC829",
"+. c #F4C923",
"@. c #EEEA28",
"#. c #EDE836",
"$. c #E8E33F",
"%. c #809D4C",
"&. c #8D985E",
"*. c #B39C58",
"=. c #83BA49",
"-. c #83A05E",
";. c #94A258",
":. c #ADAF47",
">. c #A4A641",
",. c #BCA05B",
"<. c #869D60",
"1. c #BD8663",
"2. c #A89265",
"3. c #B5906B",
"4. c #AAA660",
"5. c #D8815E",
"6. c #FB9A47",
"7. c #F4855E",
"8. c #DBA246",
"9. c #CE8367",
"0. c #D38867",
"q. c #DA9360",
"w. c #D58974",
"e. c #E9846A",
"r. c #FF8667",
"t. c #E78371",
"y. c #9CC74D",
"u. c #8BC45D",
"i. c #90C150",
"p. c #B6CE4E",
"a. c #A4D14D",
"s. c #A9CC54",
"d. c #A8D05C",
"f. c #AAD154",
"g. c #A3CD60",
"h. c #B6D463",
"j. c #D5CD47",
"k. c #DBD44C",
"l. c #D2D84F",
"z. c #DFD94C",
"x. c #D8D144",
"c. c #CED85B",
"v. c #DED852",
"b. c #D9DD5D",
"n. c #E2DB4B",
"m. c #E1DC47",
"M. c #E2DC5C",
"N. c #E5E05E",
"B. c #C4D965",
"V. c #DDD761",
"C. c #E2DC64",
"Z. c #DBE067",
"A. c #E6E166",
"S. c #E9E464",
"D. c #E4E369",
"F. c #EAE569",
"G. c None",
/* pixels */
"G.G.G.G.G.G.G.G.G.G.G.G.G.G.G.G.G.G.G.G.G.G.G.G.G.G.G.G.G.G.G.G.",
"G.G.G.G.G.G.G.G.G.G.G.G.G.G.G.G.G.G.G.G.G.G.G.G.G.G.G.G.G.G.G.G.",
"G.G.G.G.G.G.G.G.G.G.G.G.G.G.G.G.G.G.G.G.G.G.G.G.G.G.G.G.G.G.G.G.",
"G.G.G.G.G.G.G.G.G.G.G.G.G.G.G.G.G.Q G.G.G.G.G.G.G.G.G.G.G.G.G.G.",
"G.G.G.G.G.G.G.G.G.G.G.G.G.] ] ] ) V G.G.G.G.G.G.G.G.G.G.G.G.G.G.",
"G.G.G.G.G.G.G.G.G.G.G.G.b _ ] ] ) B G.G.G.G.G.G.G.G.G.G.G.G.G.G.",
"G.G.G.G.G.G.G.G.G.G.G.G.n  .] ] } A G.G.G.G.G.G.] G.G.G.G.G.G.G.",
"G.G.G.G.G.G.G.G.G.G.G.G.G.S { ] } A G.G.G.G.G.] ] ] G.G.G.G.G.G.",
"G.G.G.G.G.G.G.G.G.G.G.G.G.S ..] } C G.G.G.G.G.] ] ] ] G.G.G.G.G.",
"G.G.G.G.G.G.] ] G.G.G.G.G.A S U M N G.: @ G.] ] ] ] ] G.G.G.G.G.",
"G.G.G.G.G.] ] ] ] G.G.G.G.G.* e 5 7 0 2 %.^ ] ] ] ] ] G.G.G.G.G.",
"G.G.G.G.G.] ] ] ] G.G.: < 2 5 w r g i ,   F ] ] ] ] G.G.G.G.G.G.",
"G.G.G.G.G.G.] ] ] ] I 2 w t j g r f.p.5 0.O.] ] ] G.G.G.G.G.G.G.",
"G.G.G.G.G.G.G.] ] ] _ *.<.j c.=.r j h 3 1.G ] ] G.G.G.G.G.G.G.G.",
"G.G.G.G.G.G.G.G.G.] G . 3.t z e r q q 7 9.D ] G.G.G.G.G.G.G.G.G.",
"G.G.G.G.G.G.G.G.G.G.o.r.w.e w q 0 2 d 2.e.+.G.G.G.G.G.G.G.G.G.G.",
"G.G.G.G.G.G.G.G.G.G.G.6.X &.-.f 1 1 e 2.q.G.G.G.G.G.G.] ] G.G.G.",
"G.G.G.] ] ] ] G.G.G.% m 5.X 3.s t j h *.:.2 % P ] ] ] ] G.G.G.G.",
"G.G.G.] ] ] ] ] ] K % 2 >.7.t.;.p a.p X.! 8 ; ` ] ] ] ] G.G.G.G.",
"G.G.G.] ] ] ] ] ] ! = 2 T ~ 8.4.p s.y.Y a Y { ] ] ] ] ] G.G.G.G.",
"G.G.G.] ] ] ] ] G.G.' J 4 - a g d.D.b.4 4 ` G.G.G.G.G.G.G.G.G.G.",
"G.G.G.G.G.G.G.G.G.G.G.] K & 3 w h.F.M.W G.G.G.G.G.G.G.G.G.G.G.G.",
"G.G.G.G.G.G.G.w w 9 R ] ] ( I < g.F.A.#.] G.G.G.G.G.G.G.G.G.G.G.",
"G.G.G.G.G.G.G.0 6 w w E ] G.G.: u.F.A.n.[ ] G.G.G.G.G.G.G.G.G.G.",
"G.G.G.G.G.G.v 0 2 0 w u G.G.G.> v D.A.M.@.] ] G.G.G.G.G.G.G.G.G.",
"G.G.G.G.G.G.y < = 6 0 3 G.G.o < x D.F.F.m.] ] G.G.G.G.G.G.G.G.G.",
"G.G.G.G.G.t 1 $ / T r 2 > O + 1 u.F.A.C.m.] G.G.G.G.G.G.G.G.G.G.",
"G.G.G.G.G.< > # G.u w w 2 1 0 w h.F.V.V.z.G.G.G.G.G.G.G.G.G.G.G.",
"G.G.G.G.G.O O G.G.0 w r w r w c Z.F.F.F.n.G.G.G.G.G.G.G.G.G.G.G.",
"G.G.G.G.G.G.G.G.1 1 1 w r w k B.F.V.C.b.G.G.G.G.G.G.G.G.G.G.G.G.",
"G.G.G.G.G.G.G.G.@ G.G.=.i.d.c.M.N.M.k.j.G.G.G.G.G.G.G.G.G.G.G.G.",
"G.G.G.G.G.G.G.G.G.G.G.G.G.n.n.j.k.n.G.G.G.G.G.G.G.G.G.G.G.G.G.G."
};
