/* XPM */
static char *result[] = {
/* columns rows colors chars-per-pixel */
"40 40 116 2 ",
"   c #126613",
".  c #166E16",
"X  c #177317",
"o  c #1B7319",
"O  c #1B791A",
"+  c #207719",
"@  c #2B7D1D",
"#  c #397D1C",
"$  c #427E1D",
"%  c #4D791C",
"&  c #4F7F20",
"*  c #877B1F",
"=  c #BD7820",
"-  c #C27E23",
";  c #1E811F",
":  c #1E8622",
">  c #1E8923",
",  c #208624",
"<  c #288422",
"1  c #238D24",
"2  c #2B8C25",
"3  c #2C8F29",
"4  c #239425",
"5  c #259E27",
"6  c #25942B",
"7  c #2B952B",
"8  c #269A28",
"9  c #2B9C2E",
"0  c #37902A",
"q  c #38962D",
"w  c #25A228",
"e  c #2DA632",
"r  c #2DAC31",
"t  c #31A333",
"y  c #35A738",
"u  c #39AC3C",
"i  c #33B438",
"p  c #468523",
"a  c #488A26",
"s  c #428F29",
"d  c #548323",
"f  c #40912A",
"g  c #37C63C",
"h  c #39C03E",
"j  c #3EBD42",
"k  c #3CCC41",
"l  c #3ED144",
"z  c #3DDB47",
"x  c #3FDC49",
"c  c #43CF48",
"v  c #4BCB4F",
"b  c #41D246",
"n  c #45D44A",
"m  c #48D54E",
"M  c #43DC4C",
"N  c #4CD652",
"B  c #46DE50",
"V  c #4DDB54",
"C  c #51D656",
"Z  c #51D857",
"A  c #54DA5A",
"S  c #59DB5E",
"D  c #47E151",
"F  c #4AE355",
"G  c #4CE857",
"H  c #4EE558",
"J  c #4FEA5A",
"K  c #52E55D",
"L  c #52EA5D",
"P  c #5CDC61",
"I  c #62DF67",
"U  c #65DF6A",
"Y  c #56E660",
"T  c #5AE565",
"R  c #56EB61",
"E  c #5AEC65",
"W  c #5EEE69",
"Q  c #5FF06A",
"!  c #66E26D",
"~  c #6AE16F",
"^  c #62ED6D",
"/  c #62F06D",
"(  c #6DE272",
")  c #66EB71",
"_  c #6AEC74",
"`  c #6EE678",
"'  c #6EEC79",
"]  c #71E476",
"[  c #75E57A",
"{  c #79E67E",
"}  c #71ED7B",
"|  c #66F171",
" . c #6AF175",
".. c #6EF179",
"X. c #73F27D",
"o. c #868123",
"O. c #8F8526",
"+. c #C48225",
"@. c #C78628",
"#. c #7CE782",
"$. c #76EB80",
"%. c #7CEA84",
"&. c #7EEE88",
"*. c #76F381",
"=. c #7AF385",
"-. c #7EF489",
";. c #81E886",
":. c #83EB89",
">. c #8AEB8F",
",. c #83F48D",
"<. c #86F591",
"1. c #8AF694",
"2. c #8EF698",
"3. c #92F79C",
"4. c #97F7A0",
"5. c None",
/* pixels */
"5.5.5.5.5.5.5.5.5.5.5.5.5.5.5.5.5.5.5.5.5.5.5.5.5.5.5.5.5.5.5.5.5.5.5.5.5.5.5.5.",
"5.5.5.5.5.5.5.5.5.5.5.5.5.5.5.5.5.5.5.5.5.5.5.5.5.5.5.5.5.5.5.5.5.5.5.5.5.5.5.5.",
"5.5.5.5.5.5.5.5.5.5.5.5.5.5.5.5.5.5.5.5.5.5.5.5.5.5.5.5.5.5.5.5.5.5.5.5.5.5.5.5.",
"5.5.5.5.5.5.5.5.5.5.5.5.5.5.5.5.5.5.5.5.5.5.5.5.5.5.5.5.5.5.5.5.5.5.5.5.5.5.5.5.",
"5.5.5.5.5.5.5.5.5.5.5.5.5.5.5.5.5.5.5.5.5.5.5.5.5.5.5.5.5.5.5.5.5.5.5.5.5.5.5.5.",
"5.5.5.5.5.5.5.5.5.5.5.5.5.5.5.5.5.5.5.5.5.5.5.5.5.=.*.| Q 5.5.5.5.5.5.5.5.5.5.5.",
"5.5.5.5.5.5.5.5.5.5.5.5.5.5.[ { 5.5.5.5.5.5.5.5.5.-.X./ Q 5.5.5.5.5.5.5.5.5.5.5.",
"5.5.5.5.5.5.5.5.5.5.5.5.5.#.{ ] P 5.5.5.5.5.5.5.X.,.=. .Q R 5.5.5.5.5.5.5.5.5.5.",
"5.5.5.5.5.5.5.5.5.5.5.5.#.#.#.] S 5.5.5.5.5.5.5.X.,.<.X.Q R 5.5.5.5.5.5.5.5.5.5.",
"5.5.5.5.5.5.5.5.5.5.5.5.#.;.#.[ S M 5.5.5.5.5. .=.1.<.X./ R J 5.5.5.5.5.5.5.5.5.",
"5.5.5.5.5.5.5.5.5.5.5.{ ;.;.#.[ S n 5.5.5.5.5. .-.1.1.=. .Q J 5.5.5.5.5.5.5.5.5.",
"5.5.5.5.5.5.5.5.5.5.5.{ ;.;.{ ] S n n 5.5.5.| ..,.1.1.,.X.Q J J 5.5.5.5.5.5.5.5.",
"5.5.5.5.5.5.5.5.5.5.( { :.;.{ ] P m n 5.5.5./ *.2.3.2.<.*./ L J 5.5.5.5.5.5.5.5.",
"5.5.5.5.5.5.5.5.5.5.U #.;.#.{ { I C m 5.5.5...,.2.3.3.2.-. .R L 5.5.5.5.5.5.5.5.",
"5.5.5.5.5.5.5.5.5.5.U :.#.{ #.#.! A m m 5./ ..<.3.3.2.2.,.../ R H 5.5.5.5.5.5.5.",
"5.5.5.5.5.5.5.5.5.A ( #.#.;.#.{ ( A m m 5.Q ..2.3.4.2.<.,.*. .R H 5.5.5.5.5.5.5.",
"5.5.5.5.5.5.5.5.5.A U #.#.;.#.#.~ Z m M H | :.2.3.3.3.1.,.,.| ^ L 5.5.5.5.5.5.5.",
"5.5.5.5.5.5.5.5.5.A ( ;.;.:.#.#.! N b b H | ,.1.3.3.1.<.,.X. .E F G 5.5.5.5.5.5.",
"5.5.5.5.5.5.5.5.n Z ] >.:.#.#.] ! N b n L | ,.3.3.1.1.<.,.:.X.| J H 5.5.5.5.5.5.",
"5.5.5.5.5.5.5.5.k C ] >.;.{ { ] K m g m ^  .,.3.3.<.1.,.,.<.=...E H 5.5.5.5.5.5.",
"5.5.5.5.5.5.5.5.r N [ :.#.{ [ ( S l l F / X.1.3.1.<.,.:.,.,.X...W F F 5.5.5.5.5.",
"5.5.: 5.5.  5.k 4 v ] #.{ #.[ ~ C l b L / ,.2.3.1.,.<.,.<.,.,.X.T F F 5.5.5.5.5.",
"5.5., 5.5.. 8 k : j ( [ [ { #.U m b n L | <.2.2.<.<.<.<.<.<.,. .T V F 5.5.5.5.5.",
"5.5.6 5.5.X t h : r U ( ( ] ] P N l F ^ ..1.3.1.1.<.,.,.<.1.1.X.) L D B 5.5.5.5.",
"5.5.6 u 5.o e i 1 w Z I U ~ U S m l R Q X.1.3.1.1.,.X.,.<.1.1.,.' P F D 5.5.5.5.",
"5.> 7 u o + 7 e 2 5 m S P U U C n M E / *.2.1.<.<.=.X.X.<.<.1.;.' K D x 5.5.5.5.",
"5., q y o @ 7 9 0 8 b C C S P N n F Q  .=.<.<.,.<.X. .X.,.1.2.,.` P F x z 5.5.5.",
"5.: f t o # 2 6 s 7 g b N A A m n L Q X.-.<.,.,.,. ./ | =.1.1.=._ Y D x z 5.5.5.",
"5.; p 7 O $ < , a 1 g n n Z N m m J E ..-.<.<.<.=.^ H R ..<.>.` ! Y V M M 5.5.5.",
"5.5.& 7 5.% @ 5.d 2 5.5.5.5.5.5.H L Q X.,.<.1.<.=.R F K _ =.=.! T T F F B z 5.5.",
"5.5.o.5.5.* 5.5.O.5.5.5.5.5.5.5.L R / *.,.,.<.,.*.E F J / X.{ ! T T K F D z 5.5.",
"5.5.5.5.5.5.5.5.5.5.5.5.5.5.5.5.Y L Q *.,.<.,.&.' E F F E  .' ) T E K F D M 5.5.",
"5.5.= 5.5.5.5.5.5.5.5.5.5.5.5.5.5.L ^ ' =.,.,.$.' R F F G E ^ ^ T T Y H D M 5.5.",
"5.5.- 5.5.+.5.5.+.5.5.5.5.5.5.5.5.5.^ _ ' %.-.%.' R F D G R W T Y Y Y Y 5.5.5.5.",
"5.5.+.5.5.+.5.5.@.5.5.5.5.5.5.5.5.5.5.^ _ =.:.%.5.5.G F J R R R Y Y K 5.5.5.5.5.",
"5.5.5.5.5.5.5.5.5.5.5.5.5.5.5.5.5.5.5.5.5.5.5.5.5.5.5.5.5.5.5.5.5.5.5.5.5.5.5.5.",
"5.5.5.5.5.5.5.5.5.5.5.5.5.5.5.5.5.5.5.5.5.5.5.5.5.5.5.5.5.5.5.5.5.5.5.5.5.5.5.5.",
"5.5.5.5.5.5.5.5.5.5.5.5.5.5.5.5.5.5.5.5.5.5.5.5.5.5.5.5.5.5.5.5.5.5.5.5.5.5.5.5.",
"5.5.5.5.5.5.5.5.5.5.5.5.5.5.5.5.5.5.5.5.5.5.5.5.5.5.5.5.5.5.5.5.5.5.5.5.5.5.5.5.",
"5.5.5.5.5.5.5.5.5.5.5.5.5.5.5.5.5.5.5.5.5.5.5.5.5.5.5.5.5.5.5.5.5.5.5.5.5.5.5.5."
};
