/* XPM */
static char *result[] = {
/* columns rows colors chars-per-pixel */
"32 32 239 2 ",
"   c black",
".  c #070000",
"X  c #040706",
"o  c #090000",
"O  c #0B0D0A",
"+  c #180F09",
"@  c #19110B",
"#  c #1A110B",
"$  c #1B120C",
"%  c #1B130C",
"&  c #1C130D",
"*  c #1D140D",
"=  c #1E140D",
"-  c #1E140E",
";  c #260500",
":  c #270500",
">  c #250600",
",  c #2B0800",
"<  c #350600",
"1  c #320900",
"2  c #320A00",
"3  c #340900",
"4  c #370900",
"5  c #360A00",
"6  c #370B00",
"7  c #330C00",
"8  c #360C00",
"9  c #370C00",
"0  c #370D00",
"q  c #3C0B00",
"w  c #380C00",
"e  c #390C00",
"r  c #3A0D00",
"t  c #321106",
"y  c #3D1503",
"u  c #37170A",
"i  c #3F180A",
"p  c #3C2309",
"a  c #36290D",
"s  c #3A2A0D",
"d  c #23231C",
"f  c #27251C",
"g  c #2B281F",
"h  c #2F2A1F",
"j  c #352418",
"k  c #34281D",
"l  c #2F2A20",
"z  c #2F2B20",
"x  c #312C21",
"c  c #332E23",
"v  c #342E22",
"b  c #382D21",
"n  c #3F2E20",
"m  c #363024",
"M  c #373124",
"N  c #363327",
"B  c #383226",
"V  c #393226",
"C  c #393327",
"Z  c #3A3427",
"A  c #373529",
"S  c #37372B",
"D  c #3F392B",
"F  c #3D3A2D",
"G  c #591200",
"H  c #5B1400",
"J  c #671300",
"K  c #6B1800",
"L  c #57301D",
"P  c #6C2E0A",
"I  c #4B3322",
"U  c #413B2D",
"Y  c #4D3E2D",
"T  c #593420",
"R  c #5A3D28",
"E  c #5C3F29",
"W  c #5D402B",
"Q  c #5E402B",
"!  c #5E412B",
"~  c #5F412B",
"^  c #5A533F",
"/  c #5D533E",
"(  c #65462E",
")  c #68472F",
"_  c #6A4A32",
"`  c #775236",
"'  c #7A5336",
"]  c #7B5437",
"[  c #7C5438",
"{  c #7C5538",
"}  c #7D5538",
"|  c #7D5639",
" . c #7E5639",
".. c #7E573A",
"X. c #7F573A",
"o. c #7F583A",
"O. c #655942",
"+. c #665B44",
"@. c #675B45",
"#. c #675C45",
"$. c #6C6048",
"%. c #71654C",
"&. c #881C00",
"*. c #8B1D00",
"=. c #971F00",
"-. c #992300",
";. c #9D2000",
":. c #9E2300",
">. c #9A2B09",
",. c #B82600",
"<. c #B82700",
"1. c #BB2700",
"2. c #B82900",
"3. c #BA2800",
"4. c #BA2900",
"5. c #BB2A00",
"6. c #BD2800",
"7. c #BC2900",
"8. c #BD2900",
"9. c #BD2A00",
"0. c #BD2B00",
"q. c #BF2B00",
"w. c #C02800",
"e. c #C52B00",
"r. c #CB2900",
"t. c #CF2D00",
"y. c #CE2F00",
"u. c #CE3603",
"i. c #D73100",
"p. c #F03400",
"a. c #F63800",
"s. c #FF3800",
"d. c #FF3900",
"f. c #FF3A00",
"g. c #B8461D",
"h. c #BD6E1E",
"j. c #80583A",
"k. c #81593B",
"l. c #82593B",
"z. c #825A3B",
"x. c #835A3C",
"c. c #825C3E",
"v. c #C0420A",
"b. c #C34B1F",
"n. c #EF4C0A",
"m. c #FF450A",
"M. c #FF590E",
"N. c #CE721E",
"B. c #C24B20",
"V. c #FF5A20",
"C. c #FF5B21",
"Z. c #FF672D",
"A. c #876041",
"S. c #8C6848",
"D. c #906A49",
"F. c #936E4D",
"G. c #96714E",
"H. c #97714F",
"J. c #987350",
"K. c #9C7753",
"L. c #9C7854",
"P. c #9D7955",
"I. c #8D7F60",
"U. c #B98428",
"Y. c #BA8629",
"T. c #FF9729",
"R. c #FF9829",
"E. c #FFB738",
"W. c #928362",
"Q. c #978765",
"!. c #9B8A67",
"~. c #9B8A68",
"^. c #9E8D6A",
"/. c #A08663",
"(. c #A88761",
"). c #B18F67",
"_. c #BA8B61",
"`. c #A0906C",
"'. c #A2916D",
"]. c #B29067",
"[. c #B6936A",
"{. c #B59A72",
"}. c #B9A077",
"|. c #BCA278",
" X c #B9A47B",
".X c #BBA67D",
"XX c #BDA87E",
"oX c #C48E62",
"OX c #C38F64",
"+X c #FF9E64",
"@X c #C4A377",
"#X c #C8A77A",
"$X c #BFAB81",
"%X c #BCB086",
"&X c #C2AC81",
"*X c #C3B085",
"=X c #C4B286",
"-X c #C6B286",
";X c #CBB487",
":X c #C5B488",
">X c #C9B588",
",X c #CCB588",
"<X c #CCB688",
"1X c #CDB689",
"2X c #CDB789",
"3X c #CEB789",
"4X c #D0B98A",
"5X c #D7BF8F",
"6X c #DDBE8D",
"7X c #DFC08E",
"8X c #D8C090",
"9X c #D8C191",
"0X c #E0C18F",
"qX c #FFC388",
"wX c #E1C390",
"eX c #E4C693",
"rX c #E5C794",
"tX c #E6C894",
"yX c #E7C895",
"uX c #E8CA96",
"iX c #ECD29E",
"pX c #EFD49F",
"aX c #F0D19B",
"sX c #EFD5A0",
"dX c #F5D9A2",
"fX c #F5DAA3",
"gX c #FADDA5",
"hX c #F9DEA6",
"jX c #FDDFA7",
"kX c #FFE3AA",
"lX c #FFE4AB",
"zX c #FFE5AC",
"xX c #FFE7AD",
"cX c #FFE7AE",
"vX c #FFE8AE",
"bX c #FFE9AF",
"nX c #FFEAAF",
"mX c #FFEAB0",
"MX c None",
/* pixels */
"MXMXMXMXMXMXMXMXMXMXMXMX                MXMXMXMXMXMXMXMXMXMXMXMX",
"MXMXMXMXMXMXMXMXMXMXMXMX$ - = * * = - $ MXMXMXMXMXMXMXMXMXMXMXMX",
"MXMXMXMXMXMXMXMX      @ I ~ ~ W W ~ ~ I @       MXMXMXMXMXMXMXMX",
"MXMXMXMXMXMXMXMX% & % j ) z.k.j.j.k.z.) j % & % MXMXMXMXMXMXMXMX",
"MXMXMXMXMXMX  % I ~ Q ( ` j.o.X.X.o.j.` ( Q ~ I %   MXMXMXMXMXMX",
"MXMXMXMXMXMX  - ~ x.l.o. .| | | | | |  .o.l.x.~ -   MXMXMXMXMXMX",
"MXMXMXMXMXMX  = ! l.k...| | | | | | | | ..k.l.! =   MXMXMXMXMXMX",
"MXMXMXMXMXMX  = W o.| ] ] ] ] [ | | [ ] ] | o.W =   MXMXMXMXMXMX",
"MXMXMXMXMXMX  = Q X.} ' ' ' ' ] { { ] ' ' } X.Q =   MXMXMXMXMXMX",
"MXMXMXMXMXMX  # E A.G.L.L.L.L.F.c.c.F.P.P.G.A.E #   MXMXMXMXMXMX",
"MXMXMXMXMXMX  + R H.#X0X7X7X0X@XD.D.@XwXwX#XH.R +   MXMXMXMXMXMX",
"MXMXMXMXMXMXZ Y _ K.0XcXvXcXxXrX).].uXmXbX0XK._ Y Z MXMXMXMXMXMX",
"MXMXMXMX  C ^.{.S.J.6XxXvXxXlXdXeXtXgXbXcX6XJ.S.{.^.C   MXMXMXMX",
"MXMXMXMX  B ~.|.(.[.yXsX3X<XiXkXzXsX2X3XpXyX[.(.|.~.B   MXMXMXMX",
"MXMXMXMXMXMXm O.}.aXjX,X@.+.;XxXvX1X#.@.,XjXaX}.O.m MXMXMXMXMXMX",
"MXMXMXMXMXMX  x Q.9XhXXXx l  XbXbX Xl x XXhX9XQ.x   MXMXMXMXMXMX",
"MXMXMXMXMXMXMXMXc %.8X&Xv h  XbXbX Xh v &X8X%.c MXMXMXMXMXMXMXMX",
"MXMXMXMXMXMXMXMX  f I.`./ $.4XnXnX4X$./ `.I.f   MXMXMXMXMXMXMXMX",
"MXMXMXMXMXMXMXMX  X d ^ '.5XfXxXxXfX5X'.^ d X   MXMXMXMXMXMXMXMX",
"MXMXMXMXMXMXMXMXr q < L /.*X$X.X.X$X*X/.L < q r MXMXMXMXMXMXMXMX",
"MXMXMXMXMXMX  7 -.e.w.>.T S N M M N S T >.w.e.-.7   MXMXMXMXMXMX",
"MXMXMXMXMXMX1 G :.i.a.t.J t k A A k t J t.a.i.:.G 1 MXMXMXMXMXMX",
"MXMXMXMX  w =.;.H K y.p.r.g._.%X%X_.g.r.p.y.K H ;.=.w   MXMXMXMX",
"MXMXMXMX  i b.B.u 2 4.d.s.V.+XqXqX+XV.s.d.4.2 u B.b.i   MXMXMXMX",
"MXMXMXMX  n oXOXb 3 7.f.f.m.C.Z.Z.C.m.f.f.7.3 b OXoXn   MXMXMXMX",
"MXMXMXMX  D =X:XF : &.0.5.2.<.,.,.<.2.5.0.&.: F :X=XD   MXMXMXMX",
"MXMXMXMX  D -X>XU . > 0 9 8 5 5 5 5 8 9 0 > . U >X-XD   MXMXMXMX",
"MXMXMXMX  Z !.W.z o ; 6 6 6 e r r e 6 6 6 ; o z W.!.Z   MXMXMXMX",
"MXMXMXMXMXMXV g O , *.6.1.3.9.q.q.9.3.1.6.*., O g V MXMXMXMXMXMX",
"MXMXMXMXMXMX      y v.M.M.n.u.8.8.u.n.M.M.v.y       MXMXMXMXMXMX",
"MXMXMXMXMXMXMXMX  p h.R.T.N.P 4 4 P N.T.R.h.p   MXMXMXMXMXMXMXMX",
"MXMXMXMXMXMXMXMX  s U.E.E.Y.a     a Y.E.E.U.s   MXMXMXMXMXMXMXMX"
};
