/* XPM */
static char *result[] = {
/* columns rows colors chars-per-pixel */
"32 32 129 2 ",
"   c #4294C5",
".  c #4194C5",
"X  c #4192C3",
"o  c #4193C4",
"O  c #3B80B2",
"+  c #3D85B6",
"@  c #408EC0",
"#  c #4193C3",
"$  c #408EBF",
"%  c #3B80B1",
"&  c #325D90",
"*  c #315D8F",
"=  c #315C8F",
"-  c #356A9D",
";  c #3E86B8",
":  c #3D86B7",
">  c #356A9C",
",  c #315C8E",
"<  c #4C7A9C",
"1  c #4C7A9B",
"2  c #487BA1",
"3  c #3F7EAC",
"4  c #3C85B7",
"5  c #4D7A9B",
"6  c #88D5D7",
"7  c #89D7D8",
"8  c #8AD8D9",
"9  c #73B7C5",
"0  c #46789F",
"q  c #33679A",
"w  c #3C84B7",
"e  c #4295C6",
"r  c #477AA0",
"t  c #73B8C5",
"y  c #8AD9D9",
"u  c #95F9F2",
"i  c #97FBF3",
"p  c #97FCF4",
"a  c #84DBDD",
"s  c #5F99B1",
"d  c #4779A0",
"f  c #3F7DAB",
"g  c #3C81B2",
"h  c #3C80B2",
"j  c #97FBF4",
"k  c #5F9BB2",
"l  c #85DCDE",
"z  c #98FDF5",
"x  c #73E2E9",
"c  c #73E2EA",
"v  c #7AE1E6",
"b  c #74B9C6",
"n  c #315B8E",
"m  c #325C8E",
"M  c #79E1E6",
"N  c #72E2EA",
"B  c #58C2DB",
"V  c #57C2DB",
"C  c #57C1DB",
"Z  c #66CDE0",
"A  c #82E2E8",
"S  c #7BCCD7",
"D  c #508EAC",
"F  c #3A6D96",
"G  c #3B6E97",
"H  c #56C1DA",
"J  c #48A1CA",
"K  c #47A1CA",
"L  c #4CA4CC",
"P  c #56ABCF",
"I  c #59B0CF",
"U  c #57B3CD",
"Y  c #56B4CB",
"T  c #4090C2",
"R  c #4091C2",
"E  c #3F8FC2",
"W  c #3E8EC1",
"Q  c #459DC9",
"!  c #54B9D7",
"~  c #5BC8DE",
"^  c #5BC7DE",
"/  c #5BC8DF",
"(  c #54BAD8",
")  c #469ECA",
"_  c #4090C3",
"`  c #4091C3",
"'  c #4191C3",
"]  c #4295C5",
"[  c #479FCA",
"{  c #4AA4CC",
"}  c #4AA4CD",
"|  c #4AA5CE",
" . c #47A1CB",
".. c #4297C6",
"X. c #4092C4",
"o. c #4192C4",
"O. c #4191C2",
"+. c #3F8DBF",
"@. c #3C83B5",
"#. c #3B7EB1",
"$. c #3B7FB1",
"%. c #3D84B6",
"&. c #4193C5",
"*. c #3D85B7",
"=. c #35699B",
"-. c #315B8D",
";. c #4D7B9C",
":. c #497CA2",
">. c #407FAC",
",. c #8BDADA",
"<. c #74BAC7",
"1. c #90EDED",
"2. c #7ACCD7",
"3. c #508EAD",
"4. c #5AAFD0",
"5. c #3E8FC2",
"6. c #469DC9",
"7. c #54B9D8",
"8. c #4091C4",
"9. c #4296C6",
"0. c #47A0CB",
"q. c #459DC8",
"w. c #53B9D7",
"e. c #5AC6DE",
"r. c #3F8EC1",
"t. c #408FC2",
"y. c #49A4CC",
"u. c #49A3CC",
"i. c white",
/* pixels */
"      . X X X X X X X X X X .         . X X X X X X X X X o .   ",
"O O O + @ o # X X X X # o @ + O O O O + @ o # X X X X # o $ + % ",
"& * = - ;   o X X X X o   ; - = * * = - ;   o X X X X o   : > , ",
"< < 1 2 3 4 @ o o o o @ 4 3 2 1 < < 1 2 3 4 @ o o o o @ 4 3 2 5 ",
"6 7 8 9 0 q w e     e w q 0 9 8 7 7 8 9 0 q w e     e w q r t y ",
"u i p a s d f g h h g f d s a p j j p a s d f g h h g f d k l z ",
"x c c v l b 2 n m m n 2 b l v c c c c v l b 2 n m m n 2 b l M N ",
"B V C Z A S D F G G F D S A Z C V V C Z A S D F G G F D S A Z H ",
"J K K L P I U Y Y Y Y U I P L K K K K L P I U Y Y Y Y U I P L K ",
"T T R E W Q ! ~ ^ ^ / ( ) E _ ` R T T E W Q ! ~ ^ ^ / ( ) E _ ' ",
"' ' ' R T ] [ { { } |  ...X.o.o.' O.' R T ] [ { { } |  ...X.o.o ",
"o o X X X X R ` X +.@.#.$.$.$.%.@ o o X X X R ` X +.@.#.$.O O O ",
". o X X X X ' o.&.*.=.-., , n > ;   o X X X ' o.&.*.=.-., * * * ",
"$.%.$ o o o o @ 4 3 2 1 < < 1 2 3 4 @ o o o o @ 4 3 2 1 < < < < ",
"-.> : e     e w q 0 9 8 7 7 8 9 0 q w e     e w q 0 9 8 7 6 6 6 ",
";.:.>.g h h g f d s a p j j p a s d f g h h g f d s a p j u u u ",
",.<.:.n m m n 2 b l v c c c c v l b 2 n m m n 2 b l v c c x x x ",
"1.2.3.F G G F D S A Z C V V C Z A S D F G G F D S A Z C V B B B ",
"4.I U Y Y Y Y U I P L K K K K L P I U Y Y Y Y U I P L K K J J J ",
"5.6.7./ ^ ^ ~ ! Q W E T T R ` _ E ) ( / ^ ^ ~ ! Q W E T T R ` ' ",
"8.9.0.| } { { [ ] T R ' O.' o.o.X... .| } { { [ ] T R ' O.' o.o ",
"O $.#.@.+.X ` R X X X o o @ %.$.$.$.#.@.+.X ` R X X X o o $ %.$.",
"* , -.=.*.&.o.' X X X o   ; > n , , -.=.*.&.o.' X X X o   : > -.",
"< < 1 2 3 4 @ o o o o @ 4 3 2 1 < < 1 2 3 4 @ o o o o @ 4 3 2 5 ",
"6 7 8 9 0 q w e     e w q 0 9 8 7 7 8 9 0 q w e     e w q r t y ",
"u i p a s d f g h h g f d s a p j j p a s d f g h h g f d k l z ",
"x c c v l b 2 n m m n 2 b l v c c c c v l b 2 n m m n 2 b l M N ",
"B V C Z A S D F G G F D S A Z C V V C Z A S D F G G F D S A Z H ",
"J K K L P I U Y Y Y Y U I P L K K K K L P I U Y Y Y Y U I P L K ",
"T R R E W q.w.^ e.e.^ w.q.W E R R R R E W q.w.^ e.e.^ w.q.r.t.R ",
"' ' ' R T ] [ y.u.u.y.[ ] T R ' ' ' ' R T ] [ y.u.u.y.[ ] T R ' ",
"X X X X X X T T T T T T X X X X X X X X X X T T T T T T X X X X "
};
