/* XPM */
static char *result[] = {
/* columns rows colors chars-per-pixel */
"40 40 198 2 ",
"   c #7E7E7E",
".  c #FF1A2D",
"X  c #FF1528",
"o  c #FF1E31",
"O  c #FF2235",
"+  c #FF263A",
"@  c #FE2A3C",
"#  c #F52B3C",
"$  c #CD4736",
"%  c #DC513E",
"&  c #E1523E",
"*  c #FF2C41",
"=  c #FF3246",
"-  c #FF354A",
";  c #FF3A4C",
":  c #F43849",
">  c #FF3C53",
",  c #FF3F58",
"<  c #D55442",
"1  c #D65845",
"2  c #E25A45",
"3  c #FF4254",
"4  c #FF435C",
"5  c #FF4C5D",
"6  c #DD624E",
"7  c #D56150",
"8  c #E6624C",
"9  c #F1714C",
"0  c #E56651",
"q  c #E76E58",
"w  c #EA735C",
"e  c #E1715A",
"r  c #FA7856",
"t  c #DC5862",
"y  c #FF4761",
"u  c #FF4C62",
"i  c #FF5364",
"p  c #FF5269",
"a  c #FF5B6B",
"s  c #FB5D73",
"d  c #DC7765",
"f  c #DE7468",
"g  c #DA7F76",
"h  c #FF606E",
"j  c #EB7660",
"k  c #E77B64",
"l  c #EF6B7A",
"z  c #FF6272",
"x  c #FF6578",
"c  c #FF6B7B",
"v  c #FF6A76",
"b  c #FF727D",
"n  c #E78F5D",
"m  c #FEBA4F",
"M  c #FFB44D",
"N  c #FFBE51",
"B  c #FFBE5F",
"V  c #CA8477",
"C  c #D48979",
"Z  c #FF8260",
"A  c #E98670",
"S  c #F6A46D",
"D  c #FFCA62",
"F  c #FFCE6A",
"G  c #FFCD77",
"H  c #C17B86",
"J  c #F86E81",
"K  c #FF7383",
"L  c #FF7A85",
"P  c #FF7788",
"I  c #FF7C8E",
"U  c #E57A88",
"Y  c #7289D3",
"T  c #6DB8DD",
"R  c #45BCFF",
"E  c #4ABEFE",
"W  c #65BFF1",
"Q  c #69BEEA",
"!  c #4DC1FF",
"~  c #54C4FF",
"^  c #5BC6FE",
"/  c #5FCAFF",
"(  c #78C4EA",
")  c #63CBFF",
"_  c #6CCEFE",
"`  c #6FCAF6",
"'  c #71CEFD",
"]  c #74D2FF",
"[  c #7AD7FF",
"{  c #B98D8E",
"}  c #BC9A9B",
"|  c #BC9B96",
" . c #AA829A",
".. c #A8A29E",
"X. c #A892A4",
"o. c #9EB5BF",
"O. c #9BA9AF",
"+. c #A5A5A5",
"@. c #ABACAC",
"#. c #A7A7A7",
"$. c #B4B4B3",
"%. c #BCBCBC",
"&. c #ABAFB3",
"*. c #C9978E",
"=. c #DF8F9A",
"-. c #CD9793",
";. c #FF828E",
":. c #FF8D99",
">. c #FF8594",
",. c #FF939E",
"<. c #E59099",
"1. c #CFAD83",
"2. c #CDAB9C",
"3. c #EDAF87",
"4. c #EFBA94",
"5. c #FF96A0",
"6. c #FF9CA4",
"7. c #FA9CA6",
"8. c #C2A9AB",
"9. c #DFAEB4",
"0. c #C3BBB9",
"q. c #CEB3B7",
"w. c #D0B3B7",
"e. c #FEA2AC",
"r. c #F1A6AB",
"t. c #FFACB4",
"y. c #FFB4BB",
"u. c #FFB8BE",
"i. c #F8B1B7",
"p. c #E7A7B0",
"a. c #FFCD87",
"s. c #FFD480",
"d. c #FFD498",
"f. c #EDC186",
"g. c #CCC3BB",
"h. c #FFD7AA",
"j. c #FFC5B7",
"k. c #8F9CCB",
"l. c #848FC9",
"z. c #95A2CF",
"x. c #8CB4C5",
"c. c #9AA7E2",
"v. c #A3B4E6",
"b. c #DABDC1",
"n. c #E0BEC1",
"m. c #FFBCC2",
"M. c #89C0DD",
"N. c #87C0DB",
"B. c #BEC3C5",
"V. c #A9CBDA",
"C. c #80C9EA",
"Z. c #86D6FF",
"A. c #96DFFF",
"S. c #84CEF4",
"D. c #A9CFE2",
"F. c #A9E3FF",
"G. c #B7E9FF",
"H. c #C4C4C4",
"J. c #C6C9C8",
"K. c #CBCBCB",
"L. c #C3C7C8",
"P. c #D2C8C6",
"I. c #DDCED0",
"U. c #D3D4D4",
"Y. c #D7D9D9",
"T. c #DBDCDC",
"R. c #D7D7D7",
"E. c #E0CDCC",
"W. c #FFC5CB",
"Q. c #FFC9CF",
"!. c #FFC2C7",
"~. c #FFCCD2",
"^. c #E1D3DD",
"/. c #FFD1D6",
"(. c #FFD6DA",
"). c #FEDBDD",
"_. c #E4DACD",
"`. c #FFEFD9",
"'. c #FFDEE1",
"]. c #CCE5EF",
"[. c #C5EFFF",
"{. c #C8F1FF",
"}. c #DAF4FF",
"|. c #E4E4E4",
" X c #ECECEC",
".X c #E8E5E6",
"XX c #FFE2E5",
"oX c #FFE6E9",
"OX c #FEEBED",
"+X c #F0EDE7",
"@X c #F9F1EA",
"#X c #FFEEF0",
"$X c #F4F4F4",
"%X c #FFF3F4",
"&X c #F3FAFC",
"*X c #FEFEFE",
"=X c #FCF8F7",
"-X c None",
/* pixels */
"-X-X-X-X-X-X-X-X-X-X-X-X-X-X-X-X-X-X-X-X-X-X-X-X-X-X-X-X-X-X-X-X-X-X-X-X-X-X-X-X",
"-X-X-X-X-X-X-X-X-X-X-X-X-X-X-X-X-X-X-X-X-X-X-X-X-X-X-X-X-X-X-X-X-X-X-X-X-X-X-X-X",
"-X-X-X-X-X-X-X-X-X-X-X-X-X-X-X-X-X-XJ.U.K.%.-X-X-X-X-X-X-X-X2 -X-X-X-X-X-X-X-X-X",
"-X-X-X-X-X-X-X-X-X-X-X-X-X-X-X-X-X^.$X*X=X|.%.-X-X-X-X-Xe -Xw -X-XA -X-X-X-X-X-X",
"-X-X-X-X-X-X-X-X-X-X-X$.-X-X-X-XT.*X*X*X*X$XH.#.-X-X-X-X-Xw w j A -X-X-X-X-X-X-X",
"-X-X-X-X-X-X-X-X-X-X-X-X-X-X-X-X.X*X*X*X*X=XH.$.-X-X% 2 0 q j j q -X-X-X-X-X-X-X",
"-X-X-X-X-X-X-X-X-X+.-X-X-X-X-XH. X*X*X*X*X$XJ.$.$.$.} -X8 0 w j 6 0 2 -X-X-X-X-X",
"-X-X-X-X-X-X-X-XJ.@.-X-X-X-X-X@.T.*X*X*X*X$XJ.H.%.$.-.k 8 8 0 0 1 -X-X-X-X-X-X-X",
"-X-X-X-X-X-X  H.-X-X-X-X-X-XU.0.U.*X*X*X*X|.H.H.%.0.*.C 8 8 2 < 1 k -X-X-X-X-X-X",
"-X-X-X-X-X-X-X-X-X-X-X-X-X|.=X&X=X*X*X*X*X$X.XT.K.H.%.*.d 7 $ $ < k -X-X-X-X-X-X",
"-X-X-X-X-X-X-X-X-X-X-X-XY.*X*X*X*X*X*X*X*X*X*X*X$XK.%.V *.*.-X-X-X-X-X-X-X-X-X-X",
"-X-X-X-X-X-X-X-X-X|.$XE.n.XXXXoX#X%X=X=X=X%X%X#XoXP.-.{ @.C V -X& -X-X-X-X-X-X-X",
"-X-X-X-X-X-X-X-XH.&XXXa : > > 3 i s z x z x c x s u : # t | +.-X-X-X-X-X-X-X-X-X",
"-X-X-X-X-X-X-X-XH.=Xm.- - = * * = - - ; , > 4 , , > * . @ } @.-X-X-X-X-X-X-X-X-X",
"-X-X-X-X-X-X-X-X%.&Xu.@ o o O @ = * O + * - > > - * o o : 8.@.-X-X-X-X-X-X-X-X-X",
"-X-X-X-X-X-X-XJ.K.$XI.7.5.e.u.Q.(.!.5 . - m.'.).W.m.t.<.-.$.$.-X-X-X-X-X-X-X-X-X",
"-X-X-X-X-X-XY.=X*X XU.*X*X*X%X/././.z o ; 5.u.Q.%X*X*XT.B.%.$.-X-X-X-X-X-X-X-X-X",
"-X-X-X-X-X-X$X*X*XY.T.*X*X#XP 4 u z z z p > > > c ). XK.H.%.$.#.-X-X-X-X-X-X-X-X",
"-X-X-X-X-X-X$X*X*XU.|.*X*Xe.4 4 a ).*X=X%XXX~.z 4 J P.J.H.%.%.@.@.-X-X-X-X-X-X-X",
"-X-X-X-X-X-X X*X*XK.T.*X=Xv 4 , * z 6.t.t.5.;.p y y p.J.H.%.$.$.#.-X-X-X-X-X-X-X",
"-X-X-X-XU. X=X*X*XY.U.*XoX5 4 > i :.t.u.m.y.5.p y 4 r.U.H.%.$.$.@.-X-X-X-X-X-X-X",
"-X-X-X-X|.*X*X*X*X X%.*XXX3 > 3 a u.(.XX).XXQ.a , - 6.R.%.$.$.@.@.-X-X-X-X-X-X-X",
"-X-X-X-X X*X*X*X&XR.U.=XoX; * > ; ; i a a 5 3 ; - * r.K.%.%.@.@.-X-X-X-X-X-X-X-X",
"-X-X-X-X X*X*X*X|..X*X*X*Xz X @ 6.'.OXOXOX(.z + o : 8.H.%.$.@.@.#.-X-X-X-X-X-X-X",
"-X-X-X-XJ.=X*X=XT.=X*X*X*X(.p O = a b b v i + . ; i.L.H.B.%.@.@.@.#.-X-X-X-X-X-X",
"-X-X-X-XR.@Xh.$XT.*X*X*X*X*X=Xm.v o @ I ;.L L :.(.*X$XU.H.%.$.$.@.@.-X-X-X-X-X-X",
"-X-X-X|.*Xd.n ^.R.=X*X*X*XXXt.K 5 = 5 P L K P ;.:.t.=XT.H.H.H.%.$.$.-X-X-X-X-X-X",
"-X-X-X$X`.m X.c.U.$X*XOX6.s y 4 5 4 ; ; = * > 4 , - W.|.H.J.H.%.$.@.#.-X-X-X-X-X",
"-X-XU.$Xd.m 3.f E.T.*Xy.= = , y 4 b ).'.).m.p 4 y - m.|.H.J.H.H.$.@.-X-X-X-X-X-X",
"-X-X-X_.B D g.Y v.Y. X#X:.c t.5.4 3 e.(.W.;.- 4 p :.@XU.H.H.J.%.$.@.-X-X-X-X-X-X",
"-X-X-X1.m F 4.C g E.R.*X*X*X*X'.a @ o @ o o + x Q..XU.J.J.J.J.H.$.@.#.-X-X-X-X-X",
"-X-XU.4.N F g.k.l.z. X#Xt.:.I x > O . X . . O - s l U <.w.H.H.H.$.&.@.-X-X-X-X-X",
"-X-X Xa.N D 2. . .*.).,.O * - * + 3 K 5.L 3 + . . + > 4 =.J.H.H.$.@.@.+.-X-X-X-X",
"-X-X$Xh.G G S Z 9 r j.~.3 O @ i 6.XX*X*X*XoXm.;.5 ; 4 z w.J.H.H.%.@.#.-X-X-X-X-X",
"-X-X X=X+XP...0.0..X=X*XXXy.m.oX*X*X*X*X*X*X*X*X%X).9.q.J.J.H.H.$.@.#.-X-X-X-X-X",
"-X-XY.T.+.o.x.x.@.O.D.F.F.{.&X*X*X&X}.&X*X*X}.G.[.].B.B.B.V.D.B.%.o.N.' -X-X-X-X",
"-X-X) C.Q ^ ) ` C.T E E ~ ~ _ Z.A.A._ _ Z.] ) ) ) _ ( N.C.] ] ( x._ _ _ ^ ! -X-X",
"-X-XR ! R R R ~ ) / E R R ! E ~ ) [ [ ^ ! ! E ~ ~ / ~ ! ! ~ ^ ~ ~ ~ ~ ^ -X-X-X-X",
"-X-X-X-X-X-X-X-X-X-X-X-X-X-X-X-X-X-X-X-X-X-X-X-X-X-X-X-X-X-X-X-X-X-X-X-X-X-X-X-X",
"-X-X-X-X-X-X-X-X-X-X-X-X-X-X-X-X-X-X-X-X-X-X-X-X-X-X-X-X-X-X-X-X-X-X-X-X-X-X-X-X"
};
