/* XPM */
static char *result[] = {
/* columns rows colors chars-per-pixel */
"40 40 214 2 ",
"   c #0E0B0E",
".  c #0C150D",
"X  c #121312",
"o  c #1B1C1B",
"O  c #191718",
"+  c #271F1D",
"@  c #0B380E",
"#  c #1A231C",
"$  c #172A18",
"%  c #163D17",
"&  c #19351B",
"*  c #193819",
"=  c #0D2A0F",
"-  c #211F21",
";  c #1D3320",
":  c #222422",
">  c #292A29",
",  c #2B332B",
"<  c #243726",
"1  c #333333",
"2  c #343935",
"3  c #313732",
"4  c #742B2B",
"5  c #18471A",
"6  c #0E5613",
"7  c #1A531B",
"8  c #155819",
"9  c #0D4811",
"0  c #365717",
"q  c #0E640E",
"w  c #0C6C0F",
"e  c #0E6610",
"r  c #126612",
"t  c #146B14",
"y  c #15641A",
"u  c #1A631D",
"i  c #1A6C1A",
"p  c #0C7812",
"a  c #1B731C",
"s  c #1B7A1C",
"d  c #13771A",
"f  c #1B640E",
"g  c #356016",
"h  c #1D5B23",
"j  c #1E4822",
"k  c #264829",
"l  c #245627",
"z  c #324934",
"x  c #2D5131",
"c  c #2F5B34",
"v  c #315734",
"b  c #2F4F32",
"n  c #1E6D25",
"m  c #1E7324",
"M  c #226826",
"N  c #227E23",
"B  c #237929",
"V  c #2D6833",
"C  c #327B3A",
"Z  c #347439",
"A  c #2B7D31",
"S  c #6D4A1C",
"D  c #7E4B21",
"F  c #676E30",
"G  c #4B4B4B",
"H  c #444544",
"J  c #515051",
"K  c #5D625D",
"L  c #676767",
"P  c #6B776C",
"I  c #757E75",
"U  c #9C1B24",
"Y  c #A91B24",
"T  c #BD1823",
"R  c #B71E2A",
"E  c #B8252A",
"W  c #BB2533",
"Q  c #FF0811",
"!  c #FF0E1B",
"~  c #F50F1A",
"^  c #FF111E",
"/  c #F1221E",
"(  c #C71B28",
")  c #D81A28",
"_  c #EB1724",
"`  c #E71A28",
"'  c #F41524",
"]  c #FE1524",
"[  c #FF172A",
"{  c #F31B2B",
"}  c #FE1A2C",
"|  c #F91F26",
" . c #EA1F30",
".. c #FE1D32",
"X. c #F71F32",
"o. c #C22230",
"O. c #CA2232",
"+. c #D82334",
"@. c #CF2129",
"#. c #E82235",
"$. c #F22334",
"%. c #FB2235",
"&. c #F42338",
"*. c #EF3A38",
"=. c #EF2A26",
"-. c #8B5329",
";. c #9D4728",
":. c #D05A31",
">. c #E54739",
",. c #D95843",
"<. c #EB4944",
"1. c #DC644B",
"2. c #C97B4C",
"3. c #0C8A14",
"4. c #13891A",
"5. c #0D9615",
"6. c #0F9718",
"7. c #13941C",
"8. c #129C1B",
"9. c #14A01F",
"0. c #1A8D23",
"q. c #189E22",
"w. c #189922",
"e. c #238224",
"r. c #2A8B2A",
"t. c #25872B",
"y. c #26982E",
"u. c #288932",
"i. c #32893B",
"p. c #2C9735",
"a. c #31953D",
"s. c #339C39",
"d. c #17A221",
"f. c #19A524",
"g. c #1EAA2A",
"h. c #1CA728",
"j. c #21A52D",
"k. c #21AB2D",
"l. c #21A027",
"z. c #26AB33",
"x. c #2DAD3A",
"c. c #2CA237",
"v. c #35A33B",
"b. c #3CA43D",
"n. c #33AA38",
"m. c #26B434",
"M. c #2DBB3C",
"N. c #2AB537",
"B. c #37B43E",
"V. c #4DA93E",
"C. c #30C13F",
"Z. c #37A543",
"A. c #32BD41",
"S. c #33B441",
"D. c #49804F",
"F. c #47B64A",
"G. c #4AB54C",
"H. c #7B847C",
"J. c #6F9473",
"K. c #69BD67",
"L. c #6DAD73",
"P. c #6AAC70",
"I. c #32C342",
"U. c #2FC341",
"Y. c #56CA58",
"T. c #5BD159",
"R. c #4BCB59",
"E. c #6ED659",
"W. c #78E25D",
"Q. c #59C563",
"!. c #6DD867",
"~. c #79D66A",
"^. c #73C47C",
"/. c #6ACD6D",
"(. c #71E573",
"). c #B89253",
"_. c #9AB458",
"`. c #AEA95C",
"'. c #BBA96C",
"]. c #A6B96B",
"[. c #C68857",
"{. c #C4824E",
"}. c #C49562",
"|. c #88C95B",
" X c #8DCE6A",
".X c #86EC7C",
"XX c #81F279",
"oX c #7AB780",
"OX c #79D582",
"+X c #76CD80",
"@X c #848B85",
"#X c #89948A",
"$X c #8F9A90",
"%X c #989A99",
"&X c #9AA49B",
"*X c #87BE8D",
"=X c #A6BAA9",
"-X c #B8B8B8",
";X c #A0AFA2",
":X c #8DCC93",
">X c #97C69C",
",X c #8CDE94",
"<X c #94D59B",
"1X c #94DC9C",
"2X c #80C988",
"3X c #89F386",
"4X c #99DCA1",
"5X c #9EC8A2",
"6X c #ADCFB0",
"7X c #9BE1A3",
"8X c #B2EAB8",
"9X c #C3D0C4",
"0X c #C1EAC6",
"qX c None",
/* pixels */
"qXqXqXqXqXqXqXqXqXqXqXqXqXqXqXqXqXqXqXqXqXqXqXqXqXqXqXqXqXqXqXqXqXqXqXqXqXqXqXqX",
"qXqXqXqXqXqXqXqXqXqXqXqXqXqXqXqXqXqXqXqXqXqXqXqXqXqXqXqXqXqXqXqXqXqXqXqXqXqXqXqX",
"qXqXqXqXqXqXqXqXqXqXqXqXqXqXqXqXqXqXqXqXqXqXqXqXqXqXqXS qXqXqXqXqXqXqXqXqXqXqXqX",
"qXqXqXqXqXqXqXqXqXqXqXqXqXqXqXqXqXqXqXqXqXqXqXqXqXqXqXD qXqXqXqXqXqXqXqXqXqXqXqX",
"qXqXqXqXqXqXqXqXqXqXqXqXqXqXqXqXqXqXqXqXqXqXqXqXqXqXqX-.qXqXqXqXqXqXqXqXqXqXqXqX",
"qXqXqXqXqXqXqXqXqXqXqXqXqXqXqXqXqXqXqXqXqXqX8.8.8.qXS F qXqXqXqXqXqXqXqXqXqXqXqX",
"qXqXqXqXqXqXqXqXqXqXqXqXqXqXqXqXqXqXqX5.5.8.8.8.6.f 0 l.m.k.qXqXqXqXqXqXqXqXqXqX",
"qXqXqXqXqXqXqXqXqXqXqXqXqXqXqXqXqXqX6.8.7.d.f.m 7.3.p 8.k.l.k.h.qXqXqXqXqXqXqXqX",
"qXqXqXqXqXqXqXqXqXqXqXqXqXqXqXqXqX6.7.y w.g.n h f.7.d g.j.n 0.f.f.d.qXqXqXqXqXqX",
"qXqXqXqXqXqXqXqXqXqXqXqXqXqXqXqX4.7.5 n g.u., u.N.l.k w.m.t.j w.w.0.f.qXqXqXqXqX",
"qXqXqXqXqXqXqXqXqXqXqXqXqXqXqXq 4.8 j j.j.k > c.M.x.< h m.z.; n f.8 4.d.qXqXqXqX",
"qXqXqXqXqXqXqXqXqXqXqXqXqXqXqXr y o m N.n X & S.I.v.: & z.B.z x g.n % 6.f.qXqXqX",
"qXqXqXqXqXqXqXqXqXqXqXqXqXqXr t * # y.M.7   % N.U.a.: o Z.+XI P K.Z.$ 8 f.qXqXqX",
"qXqXqXqXqXqXqXqXqXqXqXqXqXqXt i # < N.M.5   6 N.I.C - , oX<XoXI +X^.x $ w.f.qXqX",
"qXqXqXqXqXqXqXqXqXqXqXqXqXr t 7 - k S.x.&   m A.I.V - L :X4X@X%X4X1XJ.- d f.qXqX",
"qXqXqXqXqXqXqXqXqXqXqXqXqXq t * : V U.p.: o u.A.A.x 1 I <X5X%X-X0X8X*XG 8 f.qXqX",
"qXqXqXqXqXqXqXqXqXqXqXqXqXr f $ < c.I.C > > a.I.A.z H H.>X4X=X9X0X0X>XL l q.g.qX",
"qXqXqXqXqXqXqXqXqXqXqXqXqXr 8 o l x.A.Z 1 2 s.I.v.> G oX5X4X-X-X0X0X>XL b q.g.qX",
"qXqXqXqXqXqXqXqXqXqXqXqXq e 5 o l c.A.c > 2 S.I.a.> J #X<X4X=X-X9X8X2XL z w.g.qX",
"qXqXqXqXqXqXqXqXqXqXqXqXq r % o M p.S.< O k S.I.a., H $X4X4X&X%X5X,XL.L b w.g.qX",
"qXqXqXqXqXqXqXqXqXqXqXqXq r % o M r.r.# X l A.I.a.1 2 J.7X4X%X%X:XOXL.L l f.k.qX",
"qXqXqXqXqXqXqXqXqXqXqXqXq r * O h e.B o   n I.I.i.1 1 D.,X4X#X#X:XOXL.J y f.k.qX",
"qXqXqXqXqXqXqXqXqXqXqXqXq r % O 7 s i o X B I.I.C 2 1 i.R.^.I #X:X^.P.> y f.qXqX",
"qXqXqXqXqXqXqXqXqXqXqXqXq r 6 o 7 s a # O t.I.I.Z 1 1 a.I.a.H P ^.Q.B . y f.qXqX",
"qXe.T.{.] [ [ ] ] qXqXqXS g 0 + h m m ; # u.U.U.Z 1 2 s.I.B o k z.f.9 . d h.qXqX",
"qXe.Y.{.] [ _ ] ^ ] ] } | ` ) ( E ;.-.4 4 F V.V.Z 1 2 Z.C.M O l h.7.= $ 7.h.qXqX",
"qXqXF.`.] _ U _ ' _ [ [ | ! ! [ } ......X.&.$.,.L.Z v S.M.h O n f.p   6 d.qXqXqX",
"qXqXv. X| ] _ _ ) T ] [ ! Q Q ] X.O.X.X.......1.!.r.i.M.m.5 # 0.8.9 . d d.qXqXqX",
"qXqXr.E.>.] T ) ] Y ` } ! Q Q ] { o.` R +...[ [.G.t.x.A.y.$ & w.5.. @ 6.qXqXqXqX",
"qXqXN F.).^ ] T _ ' W ) _ ~ ! ] o.o.] ' { ..%.].b.N c.N.M O 8 8.6 = 3.q.qXqXqXqX",
"qXqXqXp.|.*.^ ( ) '  .O.W R { W $.{ ` R [ ..<.~.r.s N N ; & 7.3.@ w 8.qXqXqXqXqX",
"qXqXqX0.F.).] ^ Y _ ` X.%.+.&.+.%.{ { ) ....}.T.N i a 5 & d 4.q p 5.qXqXqXqXqXqX",
"qXqXqXqXr.E.2.] ] _ Y E #.+.X.&.#.+.W ....*..XV.i i f 7 i r q w 3.5.qXqXqXqXqXqX",
"qXqXqXqXqXs.!.2.| ! ~ ) { W #.#.W %.#...%.'.!.e.y t a t t t r w qXqXqXqXqXqXqXqX",
"qXqXqXqXqXqXs.T._.:./ ^ ^ [ } [ | } ..%.[..Xb.a y a s s s 4.qXqXqXqXqXqXqXqXqXqX",
"qXqXqXqXqXqXqXr.v.Y.|.`.[.1.>.=./ =.,.'.3XG.M i t qXqXqXqXqXqXqXqXqXqXqXqXqXqXqX",
"qXqXqXqXqXqXqXqXqXt.v.Y.(.3X.XW.W.W.XX(.b.e.a i qXqXqXqXqXqXqXqXqXqXqXqXqXqXqXqX",
"qXqXqXqXqXqXqXqXqXqXqXe.p.G.F.V.n.n.b.r.N a qXqXqXqXqXqXqXqXqXqXqXqXqXqXqXqXqXqX",
"qXqXqXqXqXqXqXqXqXqXqXqXqXqXqXqXqXqXqXqXqXqXqXqXqXqXqXqXqXqXqXqXqXqXqXqXqXqXqXqX",
"qXqXqXqXqXqXqXqXqXqXqXqXqXqXqXqXqXqXqXqXqXqXqXqXqXqXqXqXqXqXqXqXqXqXqXqXqXqXqXqX"
};
